# xmcd CD database file
#
# Track frame offsets:
#	150
#	2532
#	23945
#	44247
#
# Disc length: 873 seconds
#
# Revision: 0
# Processed by: cddbd v1.5.1PL0 Copyright (c) Steve Scherf et al.
# Submitted via: CDex 1.50
#
DISCID=2b036704
DTITLE=鈴木麻里子 - センチメンタルジャーニー 沢渡ほのか/My Little Wish
DYEAR=1900
DGENRE=Anime
TTITLE0=My Little Wish〜Prologue〜
TTITLE1=My Little Wish
TTITLE2=My sweet memories〜My Little Wish〜
TTITLE3=My Little Wish(オリジナル・カラオケ)
EXTD=
EXTT0=
EXTT1=
EXTT2=
EXTT3=
PLAYORDER=
